<svg id="Layer_1" data-name="Layer 1" xmlns="http://www.w3.org/2000/svg" xmlns:xlink="http://www.w3.org/1999/xlink" viewBox="0 0 280.61 68.9"><defs><style>.cls-1{fill:#686868;}.cls-2{fill:url(#linear-gradient);}</style><linearGradient id="linear-gradient" x1="121.65" y1="46.12" x2="280.76" y2="46.12" gradientUnits="userSpaceOnUse"><stop offset="0" stop-color="#35afed"/><stop offset="0.25" stop-color="#41b8f8"/><stop offset="0.5" stop-color="#47bdfe"/><stop offset="0.99" stop-color="#35afed"/></linearGradient></defs><title>logo-label</title><path class="cls-1" d="M42,81.16l-4.18-6.74a34.31,34.31,0,0,1-7.94,1A28.51,28.51,0,0,1,8.81,66.65,29.16,29.16,0,0,1,.15,45.41,29.42,29.42,0,0,1,8.81,24a28.43,28.43,0,0,1,21.11-8.83A28.53,28.53,0,0,1,51.12,24a29.42,29.42,0,0,1,8.66,21.37A30.12,30.12,0,0,1,47.16,70.07l4,6.48a3.71,3.71,0,0,1,.22,3.58A5.51,5.51,0,0,1,48.61,83Q44.77,85,42,81.16ZM37.26,53.77l3.5,5.8a17.55,17.55,0,0,0,6.57-14.16,18,18,0,0,0-5-12.75,16.27,16.27,0,0,0-12.41-5.33,16.25,16.25,0,0,0-12.37,5.28,18.08,18.08,0,0,0-5,12.8,17.8,17.8,0,0,0,5,12.67,16.29,16.29,0,0,0,12.37,5.25h1.2l-3-4.95A4.07,4.07,0,0,1,28,54.75,5.31,5.31,0,0,1,30.69,52a4.87,4.87,0,0,1,3.67-.43A4.71,4.71,0,0,1,37.26,53.77Z" transform="translate(-0.15 -14.76)"/><path class="cls-1" d="M113.35,34.87a19.24,19.24,0,0,1-3.58,10.86,17.64,17.64,0,0,1-9.64,6.68l9.56,13.73a5.13,5.13,0,0,1,.59,4.39,6,6,0,0,1-2.9,3.72,6.14,6.14,0,0,1-4.48.68,5.38,5.38,0,0,1-3.62-2.39L88,53.94H82.3V69.3a5.4,5.4,0,0,1-1.83,4.09,6.24,6.24,0,0,1-4.4,1.71,6.17,6.17,0,0,1-4.35-1.75,5.36,5.36,0,0,1-1.87-4V22.37a7.06,7.06,0,0,1,1.66-4.56A5.39,5.39,0,0,1,75.82,16h18q9.3,0,14.33,5.53A19.79,19.79,0,0,1,113.35,34.87Zm-19.53-8H82.3V43.45H93.48a6.49,6.49,0,0,0,5.41-2.56,9,9,0,0,0,2-5.72A9.37,9.37,0,0,0,99,29.5,6.1,6.1,0,0,0,93.82,26.9Z" transform="translate(-0.15 -14.76)"/><path class="cls-2" d="M179.54,51.79V63.42a12.4,12.4,0,0,1-.45,3.71,5.93,5.93,0,0,1-1.68,2.5,15.82,15.82,0,0,1-3.12,2.15,48.88,48.88,0,0,1-10.6,4.35,42.71,42.71,0,0,1-11.09,1.36,36.19,36.19,0,0,1-12.74-2.15,26.7,26.7,0,0,1-9.81-6.25,27.64,27.64,0,0,1-6.23-9.93,37.33,37.33,0,0,1-2.17-13,38.05,38.05,0,0,1,2.11-13,26.68,26.68,0,0,1,6.21-10,27.24,27.24,0,0,1,10-6.27,38.23,38.23,0,0,1,13.33-2.17,33.08,33.08,0,0,1,10.84,1.63,23.81,23.81,0,0,1,7.65,4.12,18.35,18.35,0,0,1,4.43,5.26,10.68,10.68,0,0,1,1.49,4.92A5.24,5.24,0,0,1,176,34.64a5.74,5.74,0,0,1-4.11,1.64,5.58,5.58,0,0,1-2.55-.62,5.92,5.92,0,0,1-2.05-1.74,46.7,46.7,0,0,0-3.85-5.38,12.14,12.14,0,0,0-4.24-3.06,16.13,16.13,0,0,0-6.8-1.25,18.8,18.8,0,0,0-7.62,1.47A15.74,15.74,0,0,0,139,30a19.11,19.11,0,0,0-3.64,6.84,30.22,30.22,0,0,0-1.26,9q0,10.68,4.9,16.43T152.69,68a28,28,0,0,0,8-1.11,41,41,0,0,0,7.6-3.19V53.82h-9.52a10.41,10.41,0,0,1-5.19-1,3.74,3.74,0,0,1-1.76-3.52,4.31,4.31,0,0,1,1.47-3.35,5.76,5.76,0,0,1,4-1.33h13.95a17.92,17.92,0,0,1,4.34.46,4.91,4.91,0,0,1,2.88,2A8.28,8.28,0,0,1,179.54,51.79Z" transform="translate(-0.15 -14.76)"/><path class="cls-2" d="M222,57.3H199.9a15.09,15.09,0,0,0,1.55,6.78A10.4,10.4,0,0,0,211,70a13.9,13.9,0,0,0,3.71-.47A12.27,12.27,0,0,0,217.94,68a24.12,24.12,0,0,0,2.9-2.18q1.32-1.15,3.44-3.14a3.68,3.68,0,0,1,2.48-.75,4,4,0,0,1,2.81,1,3.39,3.39,0,0,1,1.08,2.69,7.3,7.3,0,0,1-1.2,3.57,14.29,14.29,0,0,1-3.62,3.94,20.88,20.88,0,0,1-6.08,3.12,26.2,26.2,0,0,1-8.43,1.24q-10.87,0-16.92-6.21t-6-16.84a27.93,27.93,0,0,1,1.49-9.29,20.49,20.49,0,0,1,4.34-7.34,18.91,18.91,0,0,1,7-4.7,25.2,25.2,0,0,1,9.27-1.63,22,22,0,0,1,11.36,2.79A18.39,18.39,0,0,1,229,41.49a19,19,0,0,1,2.36,9q0,4.26-2.44,5.53A15.25,15.25,0,0,1,222,57.3Zm-22.1-6.42h20.49q-.42-5.79-3.13-8.67a9.36,9.36,0,0,0-7.14-2.87,9,9,0,0,0-6.93,2.92C201.38,44.2,200.29,47.08,199.9,50.88Z" transform="translate(-0.15 -14.76)"/><path class="cls-2" d="M251.09,37.81v1.36a19.83,19.83,0,0,1,6.52-5.77,17.33,17.33,0,0,1,8.13-1.84,16.32,16.32,0,0,1,8,1.94A12.37,12.37,0,0,1,279,39a13,13,0,0,1,1.45,4.47,46.41,46.41,0,0,1,.33,6.12v21a7.51,7.51,0,0,1-1.55,5.13,5.57,5.57,0,0,1-8.13,0,7.42,7.42,0,0,1-1.57-5.09V51.79q0-5.58-1.56-8.54t-6.18-3a9.18,9.18,0,0,0-5.51,1.8A10.36,10.36,0,0,0,252.62,47q-.83,2.52-.83,9.43V70.62a7.34,7.34,0,0,1-1.59,5.15,5.34,5.34,0,0,1-4.12,1.72,5.11,5.11,0,0,1-4-1.78,7.42,7.42,0,0,1-1.57-5.09V38a7.1,7.1,0,0,1,1.41-4.82,4.86,4.86,0,0,1,3.84-1.59,5,5,0,0,1,4.62,2.81A7.51,7.51,0,0,1,251.09,37.81Z" transform="translate(-0.15 -14.76)"/></svg>